<svg xmlns="http://www.w3.org/2000/svg" viewBox="0 0 24 24">
  <path fill="#FFFFFF" d="M19.1 13.5a7.8 7.8 0 0 0 .1-1.5 7.8 7.8 0 0 0-.1-1.5l2-1.6a.6.6 0 0 0 .1-.8l-1.9-3.3a.6.6 0 0 0-.8-.2l-2.3.9a7 7 0 0 0-2.6-1.5L13.2 2h-2.4l-.4 2.5a7 7 0 0 0-2.6 1.5l-2.3-.9a.6.6 0 0 0-.8.2L2.8 8.6a.6.6 0 0 0 .1.8l2 1.6a7.8 7.8 0 0 0-.1 1.5 7.8 7.8 0 0 0 .1 1.5l-2 1.6a.6.6 0 0 0-.1.8l1.9 3.3a.6.6 0 0 0 .8.2l2.3-.9a7 7 0 0 0 2.6 1.5l.4 2.5h2.4l.4-2.5a7 7 0 0 0 2.6-1.5l2.3.9a.6.6 0 0 0 .8-.2l1.9-3.3a.6.6 0 0 0-.1-.8l-2-1.6zM12 15.5A3.5 3.5 0 1 1 15.5 12 3.5 3.5 0 0 1 12 15.5z"/>
</svg>
